<?xml version="1.0" encoding="utf-8"?>
<!-- Generator: Adobe Illustrator 15.1.0, SVG Export Plug-In . SVG Version: 6.00 Build 0)  -->
<!DOCTYPE svg PUBLIC "-//W3C//DTD SVG 1.1//EN" "http://www.w3.org/Graphics/SVG/1.1/DTD/svg11.dtd">
<svg version="1.1" id="Layer_1" xmlns="http://www.w3.org/2000/svg" xmlns:xlink="http://www.w3.org/1999/xlink" x="0px" y="0px"
	 width="500px" height="80px" viewBox="0 0 500 80" enable-background="new 0 0 500 80" xml:space="preserve">
<path fill="#FFFFFF" d="M403.649,45.214c-0.97-0.441-1.834-1.107-2.595-2.002c-0.762-0.893-1.405-1.999-1.928-3.323
	c-0.523-1.322-0.892-2.865-1.108-4.629h-3.092v14.737h3.647l-0.162-2.677h0.046c0.628,0.512,1.296,0.965,1.995,1.354
	c0.699,0.389,1.405,0.712,2.111,0.968c0.709,0.258,1.407,0.453,2.101,0.585s1.345,0.2,1.961,0.2c1.829,0,3.492-0.312,4.984-0.939
	c1.491-0.624,2.77-1.496,3.831-2.613c1.061-1.117,1.88-2.457,2.458-4.015c0.576-1.56,0.864-3.273,0.864-5.14
	c0-1.375-0.159-2.631-0.473-3.77c-0.315-1.136-0.739-2.178-1.27-3.122c-0.529-0.943-1.153-1.8-1.868-2.568
	c-0.716-0.77-1.476-1.466-2.275-2.092c-0.797-0.625-1.622-1.195-2.468-1.708c-0.845-0.512-1.661-0.985-2.444-1.414
	c-1.309-0.698-2.441-1.364-3.394-2c-0.953-0.636-1.746-1.293-2.377-1.968c-0.631-0.678-1.099-1.407-1.407-2.187
	c-0.309-0.778-0.461-1.661-0.461-2.645c0-0.78,0.139-1.503,0.414-2.17c0.277-0.666,0.65-1.241,1.12-1.722
	c0.47-0.483,1.007-0.858,1.615-1.122c0.607-0.268,1.248-0.402,1.926-0.402c2.218,0,4.027,0.873,5.435,2.616s2.326,4.411,2.76,8
	h3.091V4.708h-3.646l0.162,2.585h-0.047c-0.522-0.493-1.11-0.927-1.765-1.307c-0.654-0.381-1.334-0.693-2.043-0.94
	c-0.707-0.246-1.415-0.436-2.122-0.569c-0.709-0.134-1.37-0.2-1.985-0.2c-1.398,0-2.643,0.176-3.728,0.523
	c-1.081,0.349-2.037,0.827-2.861,1.432c-0.82,0.604-1.519,1.307-2.087,2.107c-0.569,0.799-1.028,1.646-1.373,2.538
	c-0.346,0.894-0.602,1.806-0.761,2.738c-0.163,0.934-0.242,1.831-0.242,2.692c0,2.073,0.27,3.899,0.807,5.477
	c0.537,1.58,1.285,2.985,2.239,4.216c0.953,1.23,2.083,2.317,3.392,3.26c1.308,0.946,2.721,1.827,4.247,2.648
	c0.892,0.473,1.786,0.947,2.687,1.431c0.9,0.483,1.714,1.025,2.446,1.629c0.73,0.607,1.323,1.309,1.776,2.109
	c0.454,0.8,0.682,1.754,0.682,2.861c0,0.82-0.14,1.59-0.416,2.307c-0.277,0.719-0.666,1.35-1.164,1.893
	c-0.502,0.544-1.102,0.971-1.801,1.277c-0.701,0.308-1.475,0.461-2.318,0.461C405.657,45.874,404.617,45.654,403.649,45.214
	 M386.159,14.923c0-1.271,0.076-2.266,0.23-2.985c0.156-0.717,0.373-1.25,0.658-1.599c0.284-0.349,0.636-0.575,1.051-0.676
	c0.413-0.104,0.892-0.175,1.431-0.215V5.293h-10.754v4.86l3.553-0.183c-0.03,0.266-0.058,0.605-0.079,1.016
	c-0.022,0.408-0.043,0.866-0.058,1.37c-0.016,0.501-0.029,1.029-0.036,1.585c-0.007,0.552-0.01,1.117-0.01,1.69v19.999H382.1
	c-0.371-0.717-0.813-1.564-1.327-2.539c-0.516-0.973-1.175-2.138-1.974-3.492L364.354,5.293h-7.406v4.86L360.5,9.97
	c-0.03,0.266-0.056,0.605-0.081,1.016c-0.022,0.408-0.043,0.866-0.058,1.37c-0.016,0.501-0.025,1.029-0.034,1.585
	c-0.009,0.552-0.012,1.117-0.012,1.69l0.115,24.152c0,1.273-0.076,2.267-0.23,2.983c-0.154,0.719-0.373,1.258-0.658,1.617
	c-0.284,0.359-0.639,0.585-1.061,0.677c-0.424,0.091-0.897,0.159-1.421,0.199v4.153h10.777v-4.859l-3.553,0.183
	c0.03-0.267,0.058-0.605,0.081-1.016c0.022-0.408,0.041-0.866,0.058-1.369c0.014-0.5,0.025-1.031,0.034-1.583
	c0.007-0.554,0.011-1.119,0.011-1.692l-0.07-19.507h0.046c0.926,1.766,1.787,3.334,2.587,4.709l15.114,25.75h4.014V14.923z
	 M345.632,14.923c0-1.271,0.074-2.266,0.23-2.985c0.154-0.717,0.373-1.25,0.658-1.599c0.284-0.349,0.634-0.575,1.051-0.676
	c0.413-0.104,0.892-0.175,1.429-0.215V5.293h-13.569v4.86l3.557-0.183c-0.031,0.266-0.06,0.605-0.082,1.016
	c-0.023,0.408-0.042,0.866-0.058,1.37c-0.017,0.501-0.026,1.029-0.033,1.585c-0.011,0.552-0.014,1.117-0.014,1.69v24.152
	c0,1.273-0.076,2.267-0.23,2.983c-0.153,0.719-0.373,1.258-0.658,1.617c-0.284,0.359-0.637,0.585-1.061,0.677
	c-0.424,0.091-0.896,0.159-1.421,0.199v4.153H349v-4.859l-3.553,0.183c0.028-0.267,0.058-0.605,0.08-1.016
	c0.023-0.408,0.044-0.866,0.059-1.369c0.014-0.5,0.025-1.031,0.032-1.583c0.011-0.554,0.014-1.119,0.014-1.692V14.923z
	 M314.079,28.706c0.647-0.019,1.251,0.005,1.813,0.078c0.56,0.071,1.049,0.292,1.465,0.661c0.413,0.368,0.745,0.934,0.989,1.691
	c0.248,0.76,0.37,1.795,0.37,3.107h3.115V18.923h-3.646l0.209,5.445h-5.562v-9.445c0-1.23,0.072-2.204,0.22-2.922
	c0.146-0.719,0.353-1.263,0.624-1.632c0.267-0.368,0.599-0.608,0.992-0.722c0.392-0.112,0.834-0.178,1.327-0.198l1.707-0.063
	c0.644-0.02,1.305,0.073,1.983,0.278c0.676,0.203,1.293,0.604,1.848,1.198c0.553,0.595,1.01,1.427,1.373,2.494
	c0.359,1.064,0.54,2.449,0.54,4.153h3.116l-0.278-12.215h-23.65v4.86l3.553-0.183c-0.03,0.266-0.056,0.605-0.081,1.017
	c-0.022,0.409-0.042,0.866-0.056,1.37c-0.018,0.503-0.029,1.031-0.036,1.587c-0.007,0.552-0.012,1.117-0.012,1.691v24.173
	c0,1.274-0.078,2.27-0.23,2.988s-0.373,1.251-0.657,1.601c-0.285,0.349-0.638,0.576-1.062,0.678
	c-0.424,0.104-0.896,0.175-1.419,0.216v4.122h24.944l0.276-13.876h-3.114c0,1.709-0.17,3.145-0.509,4.308
	c-0.339,1.163-0.776,2.1-1.315,2.81c-0.539,0.709-1.152,1.218-1.846,1.527c-0.693,0.309-1.385,0.463-2.077,0.463l-6.346,0.031
	c0.031-0.269,0.057-0.603,0.081-1.002c0.023-0.4,0.044-0.848,0.058-1.341c0.014-0.494,0.027-1.013,0.035-1.557
	c0.007-0.546,0.011-1.105,0.011-1.682V28.737L314.079,28.706z M278.259,27.66c-0.385-0.041-0.761-0.091-1.131-0.154v-12.92
	c0-1.108,0.074-1.99,0.221-2.647c0.146-0.656,0.353-1.158,0.622-1.507c0.27-0.349,0.599-0.575,0.991-0.676
	c0.392-0.104,0.845-0.154,1.35-0.154c0.323,0,0.703,0.025,1.143,0.078c0.44,0.049,0.895,0.173,1.373,0.368
	c0.478,0.197,0.949,0.477,1.421,0.848c0.468,0.368,0.886,0.872,1.258,1.505c0.369,0.637,0.667,1.431,0.898,2.385
	c0.23,0.954,0.346,2.107,0.346,3.461c0,1.6-0.14,2.995-0.414,4.185c-0.278,1.188-0.709,2.178-1.293,2.968
	c-0.585,0.79-1.338,1.375-2.264,1.753c-0.92,0.381-2.037,0.569-3.343,0.569C279.035,27.721,278.644,27.703,278.259,27.66
	 M288.826,34.89c-0.415-0.839-0.914-1.629-1.5-2.368c-0.583-0.739-1.166-1.263-1.753-1.57v-0.061c1.415-0.532,2.643-1.23,3.68-2.092
	c1.039-0.863,1.9-1.836,2.586-2.922c0.685-1.088,1.196-2.283,1.533-3.585c0.338-1.302,0.501-2.651,0.485-4.046
	c0-2.419-0.313-4.46-0.947-6.121c-0.629-1.662-1.536-3.011-2.721-4.046c-1.186-1.038-2.604-1.78-4.259-2.231
	c-1.652-0.452-3.504-0.677-5.548-0.677L266.93,5.293v4.86l3.554-0.183c-0.032,0.266-0.058,0.605-0.082,1.016
	c-0.023,0.408-0.042,0.866-0.058,1.37c-0.017,0.501-0.026,1.029-0.035,1.585c-0.007,0.552-0.011,1.117-0.011,1.69v24.152
	c0,1.273-0.077,2.267-0.23,2.983c-0.154,0.719-0.374,1.258-0.659,1.617c-0.283,0.359-0.638,0.585-1.061,0.677
	c-0.423,0.091-0.896,0.159-1.418,0.199v4.153h14.029v-4.859l-4.016,0.183c0.063-0.532,0.106-1.327,0.139-2.385
	c0.03-1.055,0.046-2.157,0.046-3.306v-6.799c0.23,0.021,0.44,0.029,0.634,0.029h0.566h0.601c0.199,0,0.43-0.008,0.691-0.029
	c0.277,0.451,0.578,0.963,0.901,1.538c0.322,0.575,0.684,1.292,1.082,2.154l3.461,7.537c0.633,1.374,1.23,2.574,1.801,3.6
	c0.569,1.026,1.132,1.806,1.685,2.338h7.777v-4.153c-0.539-0.02-1.019-0.142-1.442-0.369c-0.424-0.226-0.832-0.573-1.224-1.046
	c-0.392-0.472-0.796-1.078-1.213-1.815c-0.413-0.737-0.883-1.631-1.405-2.677L288.826,34.89z M229.831,28.706
	c0.646-0.019,1.25,0.005,1.811,0.078c0.563,0.071,1.05,0.292,1.465,0.661c0.416,0.368,0.746,0.934,0.993,1.691
	c0.247,0.76,0.37,1.795,0.37,3.107h3.114V18.923h-3.645l0.208,5.445h-5.561v-9.445c0-1.23,0.073-2.204,0.219-2.922
	c0.146-0.719,0.354-1.263,0.623-1.632c0.269-0.368,0.6-0.608,0.993-0.722c0.392-0.112,0.833-0.178,1.326-0.198l1.708-0.063
	c0.646-0.02,1.307,0.073,1.984,0.278c0.677,0.203,1.292,0.604,1.845,1.198c0.555,0.595,1.012,1.427,1.373,2.494
	c0.363,1.064,0.543,2.449,0.543,4.153h3.114l-0.276-12.215h-23.652v4.86l3.553-0.183c-0.031,0.266-0.058,0.605-0.08,1.017
	c-0.023,0.409-0.044,0.866-0.058,1.37c-0.015,0.503-0.028,1.031-0.035,1.587c-0.009,0.552-0.012,1.117-0.012,1.691v24.173
	c0,1.274-0.076,2.27-0.231,2.988c-0.154,0.719-0.373,1.251-0.658,1.601c-0.285,0.349-0.639,0.576-1.061,0.678
	c-0.424,0.104-0.897,0.175-1.419,0.216v4.122h24.943l0.278-13.876h-3.115c0,1.709-0.169,3.145-0.507,4.308
	c-0.339,1.163-0.778,2.1-1.316,2.81c-0.538,0.709-1.154,1.218-1.845,1.527c-0.692,0.309-1.385,0.463-2.078,0.463l-6.345,0.031
	c0.03-0.269,0.058-0.603,0.081-1.002c0.022-0.4,0.042-0.848,0.057-1.341c0.016-0.494,0.028-1.013,0.035-1.557
	c0.009-0.546,0.013-1.105,0.013-1.682V28.737L229.831,28.706z M197.861,45.214c-0.969-0.441-1.833-1.107-2.595-2.002
	c-0.762-0.893-1.404-1.999-1.927-3.323c-0.523-1.322-0.893-2.865-1.107-4.629h-3.093v14.737h3.647l-0.162-2.677h0.045
	c0.632,0.512,1.297,0.965,1.997,1.354c0.699,0.389,1.403,0.712,2.112,0.968c0.707,0.258,1.408,0.453,2.098,0.585
	c0.693,0.132,1.347,0.2,1.961,0.2c1.832,0,3.493-0.312,4.985-0.939c1.491-0.624,2.769-1.496,3.83-2.613
	c1.062-1.117,1.881-2.457,2.458-4.015c0.576-1.56,0.866-3.273,0.866-5.14c0-1.375-0.158-2.631-0.474-3.77
	c-0.316-1.136-0.738-2.178-1.269-3.122c-0.532-0.943-1.155-1.8-1.87-2.568c-0.715-0.77-1.474-1.466-2.272-2.092
	c-0.8-0.625-1.623-1.195-2.47-1.708c-0.845-0.512-1.662-0.985-2.446-1.414c-1.307-0.698-2.437-1.364-3.392-2
	c-0.953-0.636-1.746-1.293-2.375-1.968c-0.632-0.678-1.101-1.407-1.408-2.187c-0.308-0.778-0.462-1.661-0.462-2.645
	c0-0.78,0.139-1.503,0.416-2.17c0.277-0.666,0.651-1.241,1.12-1.722c0.468-0.483,1.008-0.858,1.616-1.122
	c0.607-0.268,1.25-0.402,1.927-0.402c2.215,0,4.025,0.873,5.433,2.616c1.408,1.743,2.328,4.411,2.758,8h3.092V4.708h-3.646
	l0.161,2.585h-0.046c-0.523-0.493-1.111-0.927-1.766-1.307c-0.653-0.381-1.335-0.693-2.041-0.94
	c-0.708-0.246-1.417-0.436-2.123-0.569c-0.708-0.134-1.37-0.2-1.984-0.2c-1.401,0-2.642,0.176-3.727,0.523
	c-1.085,0.349-2.04,0.827-2.862,1.432c-0.823,0.604-1.519,1.307-2.088,2.107c-0.57,0.799-1.025,1.646-1.373,2.538
	c-0.345,0.894-0.599,1.806-0.76,2.738c-0.161,0.934-0.243,1.831-0.243,2.692c0,2.073,0.27,3.899,0.808,5.477
	c0.538,1.58,1.284,2.985,2.239,4.216c0.953,1.23,2.084,2.317,3.391,3.26c1.308,0.946,2.724,1.827,4.246,2.648
	c0.892,0.473,1.788,0.947,2.688,1.431c0.899,0.483,1.716,1.025,2.446,1.629c0.73,0.607,1.322,1.309,1.776,2.109
	c0.454,0.8,0.682,1.754,0.682,2.861c0,0.82-0.139,1.59-0.417,2.307c-0.275,0.719-0.665,1.35-1.165,1.893
	c-0.5,0.544-1.1,0.971-1.8,1.277c-0.699,0.308-1.474,0.461-2.319,0.461C199.869,45.874,198.831,45.654,197.861,45.214
	 M150.662,32.859c0.262,1.848,0.667,3.626,1.211,5.338c0.546,1.714,1.255,3.313,2.123,4.799c0.87,1.488,1.917,2.782,3.139,3.879
	c1.224,1.097,2.625,1.963,4.21,2.599c1.585,0.637,3.378,0.954,5.378,0.954c1.86,0,3.56-0.327,5.1-0.983
	c1.539-0.657,2.922-1.549,4.152-2.677c1.231-1.129,2.303-2.451,3.22-3.97c0.915-1.518,1.676-3.129,2.284-4.831
	c0.607-1.702,1.06-3.461,1.361-5.275c0.3-1.815,0.449-3.595,0.449-5.34c0-1.743-0.137-3.527-0.414-5.353
	c-0.276-1.824-0.709-3.589-1.292-5.291c-0.585-1.704-1.319-3.309-2.205-4.816c-0.886-1.509-1.934-2.826-3.148-3.953
	c-1.217-1.127-2.605-2.021-4.166-2.677c-1.561-0.656-3.297-0.984-5.204-0.984c-1.861,0-3.564,0.323-5.111,0.969
	c-1.546,0.647-2.935,1.535-4.166,2.663c-1.231,1.129-2.303,2.446-3.218,3.953c-0.915,1.509-1.677,3.112-2.284,4.814
	c-0.608,1.704-1.062,3.466-1.361,5.294c-0.3,1.826-0.451,3.619-0.451,5.382C150.27,29.177,150.402,31.015,150.662,32.859
	 M157.885,22.539c0.123-1.386,0.326-2.734,0.612-4.046c0.283-1.314,0.649-2.55,1.096-3.709c0.446-1.158,0.996-2.179,1.648-3.062
	c0.654-0.881,1.417-1.573,2.287-2.077c0.868-0.502,1.864-0.752,2.987-0.752c1.6,0,2.984,0.488,4.154,1.461
	c1.168,0.975,2.139,2.328,2.907,4.06c0.77,1.734,1.338,3.795,1.709,6.186c0.368,2.39,0.553,4.999,0.553,7.83
	c0,1.273-0.063,2.59-0.186,3.953c-0.124,1.365-0.323,2.688-0.599,3.97c-0.277,1.281-0.638,2.497-1.085,3.645
	c-0.446,1.149-0.989,2.155-1.626,3.015c-0.638,0.863-1.382,1.545-2.227,2.047c-0.848,0.503-1.815,0.752-2.908,0.752
	c-1.185,0-2.246-0.291-3.185-0.876c-0.938-0.585-1.756-1.365-2.456-2.338c-0.701-0.975-1.297-2.107-1.79-3.4
	c-0.492-1.292-0.893-2.651-1.199-4.075c-0.308-1.425-0.531-2.866-0.669-4.322c-0.139-1.457-0.208-2.853-0.208-4.186
	C157.7,25.28,157.761,23.922,157.885,22.539 M112.925,32.859c0.26,1.848,0.666,3.626,1.212,5.338
	c0.545,1.714,1.252,3.313,2.122,4.799c0.868,1.488,1.915,2.782,3.139,3.879c1.222,1.097,2.626,1.963,4.211,2.599
	c1.583,0.637,3.376,0.954,5.375,0.954c1.861,0,3.562-0.327,5.1-0.983c1.539-0.657,2.923-1.549,4.154-2.677
	c1.23-1.129,2.303-2.451,3.218-3.97c0.916-1.518,1.678-3.129,2.284-4.831c0.608-1.702,1.063-3.461,1.363-5.275
	c0.298-1.815,0.45-3.595,0.45-5.34c0-1.743-0.139-3.527-0.417-5.353c-0.276-1.824-0.707-3.589-1.292-5.291
	c-0.585-1.704-1.319-3.309-2.205-4.816c-0.883-1.509-1.933-2.826-3.148-3.953c-1.215-1.127-2.604-2.021-4.166-2.677
	c-1.561-0.656-3.294-0.984-5.202-0.984c-1.862,0-3.565,0.323-5.112,0.969c-1.545,0.647-2.934,1.535-4.164,2.663
	c-1.231,1.129-2.304,2.446-3.22,3.953c-0.915,1.509-1.677,3.112-2.285,4.814c-0.606,1.704-1.06,3.466-1.36,5.294
	c-0.3,1.826-0.45,3.619-0.45,5.382C112.533,29.177,112.663,31.015,112.925,32.859 M120.148,22.539
	c0.121-1.386,0.326-2.734,0.611-4.046c0.285-1.314,0.649-2.55,1.095-3.709c0.447-1.158,0.997-2.179,1.651-3.062
	c0.652-0.881,1.415-1.573,2.284-2.077c0.868-0.502,1.865-0.752,2.988-0.752c1.6,0,2.985,0.488,4.153,1.461
	c1.17,0.975,2.139,2.328,2.908,4.06c0.769,1.734,1.338,3.795,1.708,6.186c0.37,2.39,0.554,4.999,0.554,7.83
	c0,1.273-0.062,2.59-0.184,3.953c-0.123,1.365-0.325,2.688-0.6,3.97c-0.278,1.281-0.639,2.497-1.085,3.645
	c-0.446,1.149-0.988,2.155-1.626,3.015c-0.639,0.863-1.381,1.545-2.227,2.047c-0.845,0.503-1.816,0.752-2.907,0.752
	c-1.184,0-2.246-0.291-3.184-0.876c-0.939-0.585-1.759-1.365-2.458-2.338c-0.7-0.975-1.297-2.107-1.788-3.4
	c-0.493-1.292-0.892-2.651-1.201-4.075c-0.307-1.425-0.53-2.866-0.668-4.322c-0.139-1.457-0.208-2.853-0.208-4.186
	C119.962,25.28,120.025,23.922,120.148,22.539 M106.548,49.412l0.278-15.107h-3.139c0,3.457-0.532,6.045-1.594,7.762
	c-1.061,1.717-2.522,2.576-4.383,2.576l-6.346,0.031c0.031-0.267,0.058-0.601,0.08-1.001c0.024-0.401,0.043-0.848,0.059-1.341
	c0.014-0.493,0.026-1.01,0.035-1.554c0.007-0.544,0.01-1.104,0.01-1.678V14.926c0-1.271,0.077-2.266,0.231-2.985
	c0.154-0.719,0.373-1.253,0.658-1.602s0.635-0.575,1.05-0.676c0.415-0.104,0.892-0.175,1.43-0.215V5.293H81.351v4.86l3.553-0.183
	c-0.03,0.266-0.058,0.605-0.081,1.017c-0.022,0.409-0.042,0.866-0.057,1.37c-0.016,0.503-0.028,1.031-0.035,1.587
	c-0.009,0.552-0.013,1.117-0.013,1.691v24.173c0,1.274-0.076,2.27-0.23,2.988c-0.152,0.719-0.373,1.256-0.656,1.615
	c-0.285,0.359-0.639,0.587-1.063,0.679c-0.423,0.093-0.895,0.159-1.418,0.2v4.122H106.548z"/>
<path fill="#FFFFFF" d="M436.123,30.333c2.158,0,3.908-1.75,3.908-3.907c0-2.158-1.75-3.907-3.908-3.907
	c-2.157,0-3.907,1.749-3.907,3.907C432.216,28.584,433.966,30.333,436.123,30.333"/>
<polygon fill="#FFFFFF" points="500.113,26.426 450.493,24.836 443.404,26.45 450.493,28.016 "/>
<path fill="#FFFFFF" d="M63.99,30.333c-2.157,0-3.907-1.75-3.907-3.907c0-2.158,1.75-3.907,3.907-3.907
	c2.158,0,3.908,1.749,3.908,3.907C67.898,28.584,66.147,30.333,63.99,30.333"/>
<polygon fill="#FFFFFF" points="0,26.426 49.62,28.016 56.709,26.45 49.62,24.836 "/>
<path fill="#FFFFFF" d="M359,62.306c-0.184,0.178-0.276,0.398-0.276,0.663c0,0.155,0.032,0.303,0.097,0.44
	c0.051,0.168,0.188,0.281,0.408,0.339s0.446,0.106,0.677,0.149c0.127,0.104,0.22,0.173,0.284,0.205c0.096,0,0.204-0.022,0.331-0.063
	c0.127-0.043,0.21-0.064,0.252-0.064c0.031,0,0.064,0.01,0.096,0.032l0.281,0.282c0.2,1.619,0.332,2.814,0.395,3.593
	c0,0.072,0.019,0.173,0.057,0.298c0.037,0.127,0.054,0.221,0.054,0.285c0,0.744-0.263,1.208-0.786,1.385
	c-0.211,0-0.48-0.032-0.804-0.102c-0.327-0.068-0.558-0.104-0.693-0.104c-0.242,0-0.459,0.069-0.647,0.205
	c-0.104,0.106-0.156,0.249-0.156,0.426c0,0.367,0.151,0.608,0.456,0.726c0.095,0.042,0.221,0.063,0.38,0.063
	c0.113,0,0.285-0.018,0.512-0.056c0.224-0.036,0.39-0.055,0.495-0.055c0.136,0,0.258,0.017,0.362,0.048h0.882
	c0.2-0.031,0.424-0.048,0.678-0.048c0.199,0,0.504,0.019,0.912,0.055c0.41,0.038,0.716,0.056,0.916,0.056
	c0.263,0,0.498-0.021,0.708-0.063l0.329-0.063c0.149-0.032,0.265-0.106,0.35-0.229c0.081-0.122,0.125-0.267,0.125-0.434
	c0-0.211-0.074-0.387-0.222-0.534c-0.156,0.03-0.334,0.046-0.534,0.046c-0.263,0-0.615-0.046-1.057-0.143
	c-0.537-0.104-0.881-0.166-1.039-0.188c-0.22-0.22-0.332-0.53-0.332-0.929c0-0.42,0.112-0.793,0.332-1.119
	c-0.137-0.261-0.205-0.53-0.205-0.803c0-0.379,0.133-0.697,0.396-0.962v-0.189c0.061-0.094,0.183-0.187,0.362-0.281
	c0.177-0.095,0.281-0.19,0.313-0.283c0-0.274,0.032-0.475,0.097-0.601c0.167-0.157,0.298-0.25,0.392-0.282
	c0.044,0,0.108,0.005,0.198,0.017c0.09,0.01,0.154,0.016,0.196,0.016c0.053,0,0.117-0.011,0.188-0.032
	c0.252-0.209,0.515-0.315,0.79-0.315c0.323,0,0.512,0.168,0.565,0.503c0.021,0.295,0.043,0.583,0.063,0.868
	c0.021,0.313,0.132,0.509,0.33,0.581c0.095,0.045,0.193,0.064,0.3,0.064c0.179,0,0.396-0.059,0.646-0.173
	c0.21-0.097,0.413-0.185,0.613-0.268c0.159-0.337,0.237-0.7,0.237-1.088c0-0.797-0.337-1.282-1.011-1.45
	c-0.334-0.45-0.813-0.678-1.432-0.678c-0.725,0-1.35,0.26-1.873,0.773c-0.326,0.22-0.589,0.33-0.789,0.33
	c-0.032,0-0.097-0.008-0.188-0.032c-0.097-0.063-0.21-0.189-0.339-0.385c-0.133-0.194-0.244-0.323-0.34-0.385
	c-0.147-0.064-0.295-0.127-0.44-0.189c-0.2-0.075-0.38-0.112-0.535-0.112h-0.52H360.3h-0.252h-0.251
	C359.449,62.043,359.183,62.128,359,62.306 M351.796,63.819c0.07-0.021,0.169-0.034,0.298-0.034c0.271,0,0.583,0.107,0.929,0.317
	c0.506,0.293,0.804,0.461,0.898,0.503c0.166,0.158,0.269,0.281,0.307,0.371c0.036,0.089,0.053,0.186,0.053,0.292
	c0,0.177-0.063,0.344-0.194,0.495c-0.133,0.152-0.281,0.249-0.449,0.291c-0.516,0-0.902-0.032-1.167-0.095
	c-0.146-0.021-0.257-0.03-0.33-0.03c-0.021,0-0.463,0.073-1.322,0.221c-0.463,0-0.788-0.064-0.979-0.19
	c-0.281-0.188-0.424-0.424-0.424-0.708c0-0.043,0.011-0.101,0.031-0.173c0.157-0.23,0.431-0.421,0.818-0.568
	c0.348-0.138,0.695-0.266,1.039-0.394C351.534,63.98,351.699,63.882,351.796,63.819 M349.649,63.14
	c-0.261,0-0.424,0.039-0.486,0.111c-0.063,0.073-0.221,0.246-0.473,0.52c-0.2,0.199-0.336,0.378-0.411,0.537
	c-0.01,0.104-0.013,0.183-0.013,0.235c0,0.063,0.003,0.147,0.013,0.251v0.253c0,0.147-0.03,0.289-0.095,0.425
	c-0.187,0.346-0.281,0.541-0.281,0.583c0,0.085-0.007,0.209-0.017,0.372c-0.011,0.16-0.016,0.279-0.016,0.354
	c0,0.283,0.043,0.524,0.127,0.725c0,0.147,0.062,0.279,0.187,0.393v0.583c0.055,0.105,0.122,0.294,0.205,0.568
	c0.055,0.2,0.117,0.341,0.19,0.426c0.284,0.24,0.561,0.482,0.835,0.724c0.326,0.272,0.629,0.445,0.914,0.519
	c0.198,0.168,0.331,0.3,0.392,0.395c0.317,0.043,0.61,0.064,0.885,0.064c0.431,0,0.852-0.054,1.26-0.159
	c0.125-0.095,0.226-0.157,0.298-0.188c0.493-0.117,0.909-0.348,1.246-0.693h0.204c0.148-0.041,0.286-0.158,0.418-0.348
	c0.131-0.188,0.197-0.363,0.197-0.519c0-0.179-0.112-0.343-0.333-0.49h-0.188c-0.095,0.086-0.353,0.337-0.771,0.758
	c-0.295,0.283-0.551,0.483-0.773,0.599c-0.063,0-0.144-0.02-0.244-0.057c-0.1-0.035-0.174-0.054-0.229-0.054
	c-0.03,0-0.074,0.005-0.125,0.015c-0.147,0.075-0.326,0.11-0.536,0.11c-0.188,0-0.431-0.035-0.726-0.11
	c-0.124-0.032-0.302-0.109-0.534-0.235c-0.23-0.125-0.408-0.205-0.537-0.237c-0.092-0.073-0.221-0.205-0.383-0.394
	c-0.165-0.189-0.299-0.32-0.403-0.395c-0.146-0.188-0.221-0.414-0.221-0.677c0-0.348,0.143-0.641,0.424-0.881
	c0.327-0.19,0.841-0.285,1.546-0.285c0.23,0.189,0.361,0.285,0.394,0.285c0.125,0,0.344-0.032,0.654-0.096
	c0.31-0.063,0.579-0.095,0.811-0.095h0.284c0.19,0.011,0.324,0.016,0.41,0.016c0.512,0,1.096-0.136,1.746-0.408l0.097-0.19v-0.283
	c0.01-0.115,0.016-0.2,0.016-0.251c0-0.189-0.038-0.367-0.112-0.537c-0.136-0.147-0.203-0.276-0.203-0.394
	c0-0.503-0.23-0.981-0.693-1.434c-0.198-0.2-0.651-0.534-1.354-1.007c-0.095-0.032-0.224-0.08-0.387-0.143
	c-0.162-0.063-0.291-0.11-0.387-0.143c-0.166-0.03-0.346-0.046-0.535-0.046c-0.241,0-0.519,0.046-0.834,0.143
	C350.429,62.679,349.946,62.942,349.649,63.14 M336.514,62.329c-0.157-0.067-0.279-0.102-0.362-0.102c-0.053,0-0.11,0.01-0.175,0.03
	c-0.313,0.327-0.472,0.753-0.472,1.276c0.095,0.188,0.322,0.353,0.679,0.49c0.871,0.166,1.309,0.426,1.309,0.77
	c0,0.044-0.011,0.108-0.025,0.198c-0.016,0.088-0.024,0.149-0.024,0.182c0.221,0.535,0.446,0.961,0.68,1.274
	c0.031,0.063,0.046,0.175,0.046,0.332c0,0.168,0.016,0.283,0.046,0.346c0.359,0.347,0.553,0.571,0.583,0.679
	c0,0.293,0.055,0.666,0.158,1.117c0.137,0.558,0.215,0.929,0.237,1.118c0,0.031,0.032,0.064,0.104,0.096
	c0.067,0.032,0.102,0.063,0.102,0.093c0.104,0.548,0.36,0.871,0.77,0.979c0.452,0,0.811-0.258,1.071-0.773v-0.205
	c0.127-0.157,0.221-0.281,0.284-0.378c0.096-0.156,0.142-0.356,0.142-0.599c0-0.063-0.006-0.146-0.016-0.252v-0.251
	c0-0.23,0.08-0.509,0.237-0.836c0.146-0.261,0.288-0.523,0.424-0.787c0.064-0.189,0.095-0.447,0.095-0.771
	c0.136-0.168,0.237-0.301,0.299-0.396c0.032-0.125,0.064-0.335,0.097-0.629c0.032-0.293,0.063-0.505,0.093-0.63
	c0.085-0.148,0.177-0.287,0.276-0.419c0.1-0.131,0.235-0.217,0.401-0.258c0.085,0,0.214,0.017,0.394,0.053
	c0.18,0.039,0.312,0.056,0.394,0.056c0.053,0,0.117-0.005,0.189-0.016c0.251-0.157,0.38-0.388,0.38-0.693
	c0-0.115-0.027-0.31-0.078-0.583c-0.054-0.093-0.157-0.183-0.309-0.266c-0.152-0.087-0.281-0.127-0.387-0.127
	c-0.305-0.063-0.62-0.094-0.945-0.094c-0.105,0-0.268,0.005-0.488,0.016c-0.221,0.01-0.387,0.015-0.504,0.015
	c-0.252,0-0.445-0.01-0.583-0.03h-0.598c-0.105,0.041-0.211,0.081-0.315,0.117c-0.105,0.037-0.158,0.092-0.158,0.164
	c0,0.073-0.014,0.17-0.039,0.283c-0.026,0.117-0.039,0.2-0.039,0.255c0,0.135,0.057,0.22,0.175,0.25
	c0.723,0.158,1.173,0.391,1.353,0.693c0.021,0.073,0.031,0.128,0.031,0.158c0,0.313-0.173,0.519-0.52,0.615
	c-0.125,0.871-0.22,1.522-0.284,1.953c-0.113,0.481-0.371,0.771-0.77,0.866c-0.357,0-0.651-0.165-0.885-0.488
	c0-0.011,0.007-0.058,0.017-0.143c0.012-0.083,0.017-0.147,0.017-0.19c0-0.072-0.01-0.118-0.033-0.141
	c-0.346-0.515-0.519-1.019-0.519-1.514c0-0.061,0.01-0.176,0.032-0.344c-0.283-0.074-0.426-0.232-0.426-0.475
	c0-0.073,0.01-0.141,0.03-0.205c0.431-0.419,0.758-0.714,0.979-0.882c0-0.072-0.036-0.15-0.11-0.235
	c-0.095-0.125-0.152-0.21-0.173-0.253c0-0.188-0.069-0.353-0.205-0.486c-0.138-0.021-0.27-0.034-0.396-0.034
	c-0.178,0-0.443,0.029-0.797,0.087c-0.349,0.06-0.609,0.086-0.777,0.086c-0.147,0-0.273-0.01-0.378-0.03
	C336.78,62.442,336.672,62.397,336.514,62.329 M327.582,63.912h0.299c0.264,0.295,0.43,0.441,0.505,0.441
	c0.064,0,0.115-0.016,0.157-0.046c0.283-0.283,0.541-0.426,0.771-0.426c0.042,0,0.11,0.011,0.207,0.03
	c0.188,0.117,0.376,0.283,0.564,0.504c0.327,0.368,0.495,0.558,0.505,0.567v0.19c0.158,0.125,0.278,0.31,0.361,0.551
	c0.138,0.39,0.21,0.599,0.222,0.631c0,0.03-0.017,0.063-0.049,0.093c-0.03,0.032-0.046,0.063-0.046,0.095v0.679
	c0.032,0.093,0.046,0.188,0.046,0.283c0,0.167-0.062,0.393-0.188,0.676c-0.136,0.327-0.22,0.558-0.252,0.695
	c0,0.198-0.082,0.38-0.243,0.542c-0.162,0.163-0.34,0.244-0.526,0.244c-0.578,0.105-1.004,0.263-1.278,0.474
	c-0.126,0.104-0.251,0.155-0.377,0.155c-0.169,0-0.525-0.21-1.071-0.629c-0.033,0-0.079-0.017-0.142-0.047
	c-0.062-0.032-0.115-0.048-0.158-0.048c-0.388-0.271-0.778-0.799-1.164-1.576c-0.014-0.051-0.018-0.089-0.018-0.108
	c0-0.031,0.004-0.073,0.018-0.128V67.63c0-0.085-0.034-0.157-0.096-0.221c-0.095-0.157-0.159-0.283-0.189-0.378v-0.3
	c0.21-0.208,0.414-0.534,0.613-0.975c0.221-0.517,0.405-0.866,0.553-1.056C327.026,64.301,327.352,64.04,327.582,63.912
	 M325.141,64.308c-0.147,0.724-0.312,1.207-0.489,1.449c0.021,0.198,0.032,0.344,0.032,0.44c0,0.147-0.011,0.357-0.032,0.629
	c-0.022,0.273-0.032,0.479-0.032,0.615c0,0.421,0.051,0.734,0.143,0.944c0.021,0.2,0.1,0.426,0.237,0.679
	c0.21,0.42,0.325,0.65,0.346,0.692c0.242,0.379,0.498,0.699,0.772,0.96c0.387,0.232,0.693,0.348,0.914,0.348
	c0.166,0,0.351-0.048,0.551-0.143c0.136,0,0.268,0.064,0.394,0.189c0.064,0.022,0.122,0.031,0.173,0.031
	c0.074,0,0.187-0.021,0.339-0.063c0.152-0.04,0.271-0.063,0.354-0.063c0.127,0.083,0.32,0.126,0.583,0.126
	c0.285-0.094,0.51-0.158,0.677-0.19c0.264-0.136,0.532-0.272,0.803-0.41c0.295-0.18,0.479-0.368,0.553-0.567
	c0.241-0.35,0.41-0.64,0.504-0.87c0.188-0.664,0.353-1.159,0.489-1.488c0-0.041,0.006-0.104,0.016-0.188v-0.189
	c0-0.138-0.042-0.265-0.127-0.38c-0.041-0.072-0.062-0.162-0.062-0.27c0-0.104,0.025-0.263,0.078-0.473
	c0.051-0.21,0.078-0.376,0.078-0.49c0-0.157-0.032-0.305-0.095-0.442c-0.126-0.284-0.246-0.569-0.363-0.854
	c-0.155-0.316-0.359-0.549-0.613-0.696c-0.62-0.368-1.056-0.61-1.309-0.728c-0.491-0.222-0.96-0.33-1.4-0.33
	c-0.095,0-0.288,0.021-0.583,0.061c-0.661,0.107-1.075,0.185-1.244,0.237c-0.472,0.138-0.809,0.353-1.009,0.646
	C325.524,63.877,325.299,64.138,325.141,64.308 M314.777,63.629c-0.234,0.326-0.421,0.552-0.57,0.679c0,0.766-0.1,1.312-0.298,1.638
	c-0.105,0.23-0.156,0.503-0.156,0.82c0,0.178,0.021,0.36,0.062,0.549c0.095,0.127,0.159,0.221,0.189,0.285
	c0,0.072,0.018,0.171,0.055,0.298s0.054,0.221,0.054,0.283c0.138,0.221,0.27,0.553,0.396,0.993c0.22,0.251,0.408,0.446,0.567,0.583
	v0.19c0.071,0.134,0.235,0.261,0.488,0.378c0.587,0.166,1.014,0.298,1.274,0.392c0.578,0.18,0.987,0.27,1.229,0.27
	c0.473,0,0.839-0.152,1.102-0.456c0.495,0,0.948-0.102,1.356-0.302c0.168-0.124,0.323-0.293,0.473-0.504
	c0.062-0.095,0.168-0.275,0.315-0.551c0.115-0.18,0.173-0.373,0.173-0.583c0-0.178-0.058-0.315-0.173-0.41
	c-0.085-0.021-0.17-0.03-0.254-0.03c-0.271,0-0.481,0.079-0.631,0.235c-0.629,0.726-1.313,1.182-2.044,1.371
	c-0.149,0.063-0.322,0.094-0.522,0.094c-0.431,0-0.77-0.131-1.024-0.394c-0.43,0-0.791-0.193-1.086-0.581
	c-0.178-0.242-0.373-0.636-0.583-1.184c-0.188-0.188-0.283-0.313-0.283-0.378c0-0.113-0.007-0.283-0.024-0.503
	c-0.017-0.221-0.023-0.389-0.023-0.506c0-0.691,0.241-1.132,0.726-1.322c-0.012-0.02-0.021-0.042-0.032-0.063
	c0-0.021,0.021-0.058,0.063-0.111c0.044-0.051,0.064-0.089,0.064-0.108c0.126-0.221,0.329-0.405,0.614-0.553
	c0.125-0.073,0.376-0.184,0.756-0.329c0.336-0.138,0.65-0.205,0.945-0.205c0.241,0,0.446,0.035,0.614,0.108
	c0.38,0.159,0.636,0.447,0.771,0.866c0.042,0.138,0.109,0.527,0.205,1.168c0.473,0.188,0.735,0.281,0.786,0.281
	c0.149,0,0.302-0.061,0.458-0.188c0.399-0.378,0.598-0.666,0.598-0.866c0.022-0.125,0.032-0.215,0.032-0.268
	c0-0.505-0.437-1.066-1.309-1.685h-0.188c-0.358-0.253-0.615-0.446-0.773-0.583c-0.714-0.19-1.27-0.315-1.668-0.378
	c-0.095,0-0.315,0.095-0.663,0.284c-0.261,0.041-0.523,0.134-0.786,0.281c-0.055,0.022-0.285,0.154-0.695,0.396
	C315.189,63.135,314.997,63.334,314.777,63.629 M303.338,64.425c-0.02,0.194-0.03,0.339-0.03,0.434c0,0.115,0.011,0.221,0.03,0.315
	c0.032,0.147,0.117,0.305,0.253,0.471c0.208,0.23,0.327,0.368,0.348,0.41v0.188c0.115,0.097,0.24,0.143,0.378,0.143
	c0.104,0,0.253-0.03,0.44-0.095c0.188-0.063,0.331-0.094,0.426-0.094c0.083,0,0.157,0.016,0.221,0.046
	c0.23,0.159,0.393,0.29,0.487,0.396c0.188,0,0.347-0.032,0.474-0.096c0.146,0,0.293,0.038,0.442,0.11
	c0.198,0.105,0.312,0.163,0.344,0.173c0.589,0,1.014,0.037,1.276,0.11c0.075,0.055,0.184,0.178,0.333,0.378
	c0.115,0.168,0.224,0.265,0.33,0.285c0.324,0.093,0.587,0.288,0.785,0.581v0.205c-0.041,0.055-0.209,0.306-0.502,0.756
	c-0.18,0.283-0.37,0.488-0.568,0.615c-0.452,0.221-0.809,0.379-1.071,0.472c-0.072,0-0.194-0.032-0.369-0.102
	c-0.175-0.068-0.317-0.102-0.434-0.102c-0.032,0-0.083,0.008-0.156,0.023c-0.075,0.016-0.133,0.022-0.175,0.022
	c-0.01,0-0.246-0.073-0.709-0.221c-0.252-0.083-0.478-0.256-0.678-0.519c-0.03-0.043-0.162-0.263-0.394-0.661
	c-0.335-0.505-0.565-0.892-0.692-1.166c-0.117-0.073-0.241-0.11-0.379-0.11c-0.18,0-0.303,0.037-0.378,0.11
	c-0.072,0.147-0.11,0.305-0.11,0.471c0,0.265,0.099,0.532,0.299,0.804c0.032,0.074,0.048,0.147,0.048,0.221
	c0,0.137-0.048,0.289-0.149,0.457c-0.099,0.168-0.197,0.331-0.292,0.49c-0.052,0.124-0.078,0.256-0.078,0.394
	c0,0.22,0.058,0.41,0.173,0.565c0.18,0.105,0.356,0.158,0.536,0.158c0.095,0,0.173-0.016,0.237-0.048
	c0.336-0.137,0.792-0.205,1.37-0.205c0.157,0.022,0.478,0.085,0.961,0.19c0.388,0.083,0.708,0.125,0.961,0.125
	c0.136,0,0.241-0.005,0.315-0.016c0.431-0.104,0.756-0.3,0.977-0.581c0.03-0.022,0.063-0.034,0.095-0.034
	c0.041,0,0.129,0.022,0.259,0.064c0.131,0.043,0.239,0.063,0.324,0.063c0.071-0.072,0.23-0.205,0.472-0.395
	c0.199-0.147,0.335-0.271,0.41-0.378c0-0.01,0.058-0.156,0.173-0.44c0.074-0.179,0.11-0.324,0.11-0.441
	c0.106-0.293,0.157-0.567,0.157-0.818c0-0.41-0.147-0.688-0.44-0.836c-0.295-0.093-0.492-0.283-0.594-0.566
	c-0.099-0.284-0.327-0.482-0.683-0.598c-0.096-0.021-0.338-0.043-0.726-0.064c-0.294-0.011-0.534-0.058-0.725-0.141
	c-0.325,0-0.588,0.037-0.786,0.109c-0.21,0-0.442-0.037-0.695-0.109c-0.188-0.064-0.376-0.128-0.565-0.188
	c-0.326-0.357-0.553-0.646-0.679-0.866v-0.189c0.17-0.19,0.339-0.38,0.512-0.575c0.175-0.195,0.359-0.327,0.56-0.403
	c0.085-0.041,0.18-0.062,0.283-0.062c0.064,0,0.161,0.011,0.293,0.031c0.131,0.021,0.228,0.03,0.292,0.03
	c0.136-0.03,0.276-0.046,0.424-0.046c0.357,0,0.735,0.078,1.134,0.235c0.21,0.107,0.436,0.338,0.679,0.693
	c0.242,0.358,0.436,0.582,0.581,0.67c0.149,0.09,0.327,0.134,0.536,0.134c0.222,0,0.406-0.048,0.552-0.141
	c0.011-0.01,0.018-0.034,0.018-0.064c0-0.063-0.075-0.23-0.221-0.503c-0.023-0.148-0.032-0.258-0.032-0.333
	c0-0.113,0.009-0.293,0.032-0.533c0.021-0.241,0.03-0.421,0.03-0.536c0-0.293-0.04-0.546-0.127-0.756l-0.205-0.095h-0.975
	c-0.147,0.052-0.279,0.077-0.395,0.077c-0.168,0-0.366-0.037-0.599-0.109c-0.178-0.051-0.363-0.104-0.551-0.158
	c-0.23-0.063-0.441-0.093-0.631-0.093c-0.21,0-0.682,0.063-1.419,0.189c-0.263,0-0.519,0.062-0.771,0.188
	c-0.074,0.083-0.325,0.283-0.756,0.597c-0.293,0.22-0.493,0.449-0.599,0.68v0.188C303.37,64.092,303.358,64.229,303.338,64.425
	 M295.368,61.078c0.461,0.356,0.777,0.534,0.945,0.534c0.085,0,0.159-0.016,0.221-0.046c0.515-0.293,0.772-0.726,0.772-1.292
	c0-0.242-0.059-0.457-0.173-0.646c-0.21-0.285-0.495-0.426-0.851-0.426c-0.37,0-0.773,0.141-1.214,0.426
	c0,0.146-0.041,0.317-0.125,0.512c-0.085,0.195-0.126,0.334-0.126,0.417c0,0.115,0.058,0.23,0.171,0.346
	C295.106,61.019,295.232,61.078,295.368,61.078 M294.015,62.52c-0.21-0.016-0.362-0.026-0.457-0.026c-0.147,0-0.29,0.018-0.426,0.05
	c-0.168,0.083-0.253,0.235-0.253,0.456c0,0.295,0.115,0.498,0.346,0.615c0.14,0,0.295-0.021,0.474-0.064
	c0.178-0.043,0.3-0.063,0.362-0.063c0.043,0,0.09,0.01,0.143,0.032c0.263,0.074,0.519,0.147,0.771,0.22
	c0.295,0.105,0.457,0.258,0.488,0.456c0.136,0.389,0.207,0.746,0.207,1.073c0,0.251-0.039,0.477-0.112,0.677v0.976
	c0.03,0.022,0.054,0.077,0.071,0.167c0.015,0.088,0.061,0.134,0.132,0.134c-0.198,0.44-0.298,1.149-0.298,2.125
	c-0.23,0.263-0.363,0.396-0.394,0.396c-0.39-0.053-0.73-0.08-1.023-0.08c-0.536,0-1.034,0.063-1.497,0.188
	c-0.273,0.064-0.408,0.254-0.408,0.567c0,0.117,0.035,0.211,0.108,0.283c0.064,0,0.127,0.038,0.189,0.11
	c0.064,0,0.157,0.007,0.285,0.018c0.125,0.01,0.22,0.015,0.281,0.015c0.242,0,0.447-0.047,0.615-0.143
	c0.641,0.158,1.597,0.237,2.866,0.237c0.693,0,1.197,0.022,1.513,0.063c0.452,0.063,0.729,0.093,0.835,0.093
	c0.378,0,0.714-0.093,1.009-0.283c0.156-0.168,0.237-0.346,0.237-0.535c0-0.136-0.047-0.256-0.143-0.361
	c-0.095-0.105-0.21-0.158-0.349-0.158l-0.519,0.19c-0.115,0-0.278-0.036-0.488-0.104c-0.211-0.067-0.373-0.102-0.488-0.102
	c-0.136,0.072-0.37,0.108-0.693,0.108c-0.158-0.053-0.306-0.161-0.441-0.329c-0.032-0.042-0.137-0.194-0.314-0.457
	c0-0.053-0.022-0.133-0.07-0.237c-0.049-0.104-0.07-0.182-0.07-0.236c0-0.01,0.01-0.047,0.03-0.11
	c0.063-0.199,0.095-0.408,0.095-0.629c0-0.086-0.007-0.203-0.017-0.354c-0.011-0.153-0.016-0.271-0.016-0.356
	c0-0.136,0.016-0.272,0.048-0.41c0.127-0.166,0.22-0.298,0.282-0.392c0.013-0.074,0.018-0.127,0.018-0.159
	c0-0.073-0.021-0.209-0.056-0.408c-0.036-0.2-0.057-0.368-0.057-0.504c0.095-0.127,0.143-0.279,0.143-0.459
	c0-0.209-0.078-0.477-0.235-0.802c-0.021-0.096-0.032-0.163-0.032-0.204c0-0.044,0.007-0.111,0.017-0.205
	c0.011-0.097,0.016-0.164,0.016-0.205c0-0.147-0.032-0.274-0.095-0.378c-0.211-0.337-0.636-0.505-1.276-0.505
	c-0.094,0-0.241,0.007-0.441,0.015c-0.2,0.013-0.339,0.018-0.425,0.018C294.388,62.543,294.226,62.534,294.015,62.52 M282.712,64.04
	c0.12-0.117,0.233-0.221,0.339-0.317c0.767-0.281,1.302-0.424,1.605-0.424c0.074,0,0.191,0.005,0.355,0.016
	c0.161,0.01,0.285,0.015,0.37,0.015c0.063,0.064,0.164,0.095,0.298,0.095c0.221,0.126,0.385,0.226,0.49,0.299
	c0.156,0.159,0.251,0.285,0.283,0.38V64.4c-0.012,0.138-0.016,0.237-0.016,0.301c0,0.115,0.011,0.215,0.03,0.298
	c0.041,0.127,0.153,0.286,0.333,0.481c0.176,0.193,0.288,0.354,0.328,0.479c0,0.105-0.03,0.248-0.093,0.426
	c-0.064,0.18-0.097,0.325-0.097,0.44c0.129,0.263,0.189,0.458,0.189,0.583c-0.093,0.17-0.157,0.301-0.189,0.396
	c-0.104,0.083-0.217,0.171-0.337,0.268c-0.121,0.094-0.202,0.198-0.243,0.313v0.19c-0.327,0.272-0.647,0.54-0.963,0.803
	c-0.398,0.315-0.793,0.472-1.181,0.472c-0.063-0.041-0.145-0.126-0.243-0.251c-0.102-0.125-0.178-0.205-0.23-0.237
	c-0.42,0-0.712-0.131-0.881-0.394c-0.262-0.293-0.441-0.641-0.536-1.039c-0.03-0.146-0.085-0.546-0.156-1.198
	c0-0.263-0.064-0.456-0.189-0.581c0.083-0.043,0.145-0.112,0.18-0.205c0.037-0.096,0.071-0.188,0.104-0.285
	c0.073-0.136,0.117-0.339,0.127-0.613c0.011-0.315,0.036-0.534,0.078-0.653C282.509,64.271,282.59,64.153,282.712,64.04
	 M281.302,64.211c-0.063,0.127-0.099,0.348-0.104,0.663c-0.005,0.314-0.032,0.546-0.085,0.693c0,0.03-0.035,0.093-0.104,0.189
	c-0.067,0.093-0.102,0.163-0.102,0.203c0.021,0.073,0.03,0.185,0.03,0.331c0,0.095-0.01,0.233-0.03,0.418
	c-0.022,0.184-0.032,0.322-0.032,0.417c0,0.063,0.01,0.158,0.032,0.283c0.105,0.126,0.173,0.221,0.205,0.283
	c0.022,0.138,0.032,0.332,0.032,0.583v0.018c0,0.471,0.081,0.798,0.251,0.977c0.641,0.462,1.029,0.781,1.164,0.959
	c0.032,0,0.097,0.017,0.198,0.048c0.099,0.033,0.165,0.049,0.197,0.049c0.408,0.366,0.851,0.549,1.323,0.549
	c0.431,0,0.765-0.183,1.008-0.549c0.02-0.01,0.039-0.016,0.049-0.016s0.027,0.018,0.053,0.053c0.025,0.039,0.056,0.056,0.086,0.056
	c0.075,0.021,0.127,0.031,0.159,0.031c0.126,0,0.398-0.134,0.819-0.409c0.083-0.02,0.168-0.032,0.252-0.032
	c0.167,0,0.373,0.073,0.614,0.221c0.283,0.18,0.481,0.279,0.599,0.302c0.189,0.041,0.357,0.061,0.503,0.061
	c0.17,0,0.357-0.02,0.568-0.061c0.127-0.074,0.188-0.205,0.188-0.395c0-0.128-0.03-0.221-0.095-0.285
	c-0.261-0.083-0.522-0.166-0.779-0.251c-0.256-0.083-0.385-0.226-0.385-0.426c-0.043-0.493-0.063-1.097-0.063-1.812
	c0-0.587,0.027-1.474,0.078-2.655c0.053-1.18,0.078-2.06,0.078-2.637c-0.146-0.264-0.221-0.448-0.221-0.552
	c0-0.074,0.011-0.122,0.032-0.142c0.138-0.179,0.205-0.441,0.205-0.789c0-0.063-0.007-0.157-0.017-0.282v-0.283
	c-0.071-0.295-0.235-0.525-0.488-0.693c-0.251-0.168-0.528-0.253-0.834-0.253c-0.138,0-0.278,0.027-0.424,0.078
	c-0.118,0-0.261-0.027-0.434-0.085c-0.173-0.06-0.292-0.086-0.356-0.086c-0.071,0-0.136,0.02-0.188,0.063
	c-0.136,0.083-0.275,0.173-0.417,0.266c-0.143,0.097-0.214,0.19-0.214,0.285c0,0.022,0.016,0.067,0.049,0.141
	c0.041,0.159,0.197,0.267,0.472,0.324c0.272,0.059,0.539,0.106,0.804,0.148c0.314,0.117,0.473,0.343,0.473,0.679
	c0.093,0.546,0.143,0.876,0.143,0.991c0,0.295-0.08,0.548-0.236,0.756c-0.127,0-0.647-0.093-1.561-0.281
	c-0.263-0.054-0.52-0.081-0.771-0.081c-0.903,0-1.492,0.322-1.765,0.963c-0.147,0.188-0.273,0.313-0.378,0.378L281.302,64.211z
	 M264.784,69.167c0.06,0.161,0.088,0.297,0.088,0.4c0,0.127-0.058,0.343-0.175,0.646c-0.032,0.158,0.002,0.348,0.097,0.568
	c0.193,0.4,0.338,0.576,0.435,0.534c0.044-0.166,0.054-0.294,0.033-0.377c0.17-0.452,0.244-0.788,0.224-1.008
	c-0.115-0.231-0.176-0.414-0.189-0.552c0.092-0.272,0.17-0.468,0.237-0.583l-0.095-0.175c0.051-0.135,0.081-0.24,0.095-0.313
	c-0.088-0.272-0.17-0.473-0.237-0.598c-0.01-0.18,0.042-0.4,0.159-0.663c0.126-0.304,0.2-0.519,0.221-0.645
	c0.021-0.116-0.034-0.288-0.166-0.521c-0.129-0.23-0.2-0.397-0.214-0.504c0.014-0.083,0.063-0.229,0.152-0.434
	c0.089-0.202,0.122-0.354,0.102-0.448c-0.013-0.461,0.025-0.94,0.108-1.434c-0.006-0.419-0.051-1.029-0.125-1.827
	c0.115-0.263,0.173-0.544,0.173-0.852c0-0.378-0.102-0.706-0.304-0.989c-0.266-0.012-0.526,0.083-0.783,0.283
	c-0.032,0.051-0.025,0.123,0.016,0.22c0.042,0.136,0.063,0.221,0.063,0.251c-0.017,0.074-0.072,0.214-0.162,0.419
	s-0.136,0.369-0.136,0.495c0.09,0.212,0.178,0.415,0.27,0.613c0.104,0.254,0.115,0.47,0.028,0.646
	c-0.178,0.265-0.256,0.463-0.235,0.599c0.064,0.274,0.115,0.479,0.157,0.615c0.032,0.127,0.011,0.301-0.063,0.521
	c-0.085,0.283-0.132,0.468-0.143,0.551c0.011,0.064,0.053,0.161,0.128,0.292c0.072,0.132,0.1,0.239,0.077,0.322v0.205v0.22
	c0.147,0.306,0.205,0.49,0.175,0.553c-0.074,0.158-0.122,0.336-0.143,0.534c-0.01,0.055-0.021,0.247-0.032,0.583
	c0.022,0.064,0.063,0.185,0.128,0.363c0.051,0.127,0.072,0.235,0.061,0.332c-0.071,0.586-0.11,0.829-0.11,0.724
	C264.697,68.858,264.727,69.003,264.784,69.167 M245.387,63.819c0.073-0.021,0.173-0.034,0.298-0.034
	c0.273,0,0.584,0.107,0.931,0.317c0.503,0.293,0.802,0.461,0.897,0.503c0.168,0.158,0.271,0.281,0.307,0.371
	c0.037,0.089,0.056,0.186,0.056,0.292c0,0.177-0.066,0.344-0.198,0.495c-0.132,0.152-0.281,0.249-0.448,0.291
	c-0.515,0-0.904-0.032-1.166-0.095c-0.147-0.021-0.257-0.03-0.332-0.03c-0.021,0-0.462,0.073-1.323,0.221
	c-0.462,0-0.788-0.064-0.977-0.19c-0.283-0.188-0.426-0.424-0.426-0.708c0-0.043,0.011-0.101,0.033-0.173
	c0.157-0.23,0.431-0.421,0.818-0.568c0.347-0.138,0.694-0.266,1.04-0.394C245.128,63.98,245.292,63.882,245.387,63.819
	 M243.245,63.14c-0.264,0-0.425,0.039-0.49,0.111c-0.062,0.073-0.22,0.246-0.472,0.52c-0.199,0.199-0.336,0.378-0.409,0.537
	c-0.01,0.104-0.016,0.183-0.016,0.235c0,0.063,0.005,0.147,0.016,0.251v0.253c0,0.147-0.032,0.289-0.094,0.425
	c-0.189,0.346-0.284,0.541-0.284,0.583c0,0.085-0.006,0.209-0.016,0.372c-0.01,0.16-0.016,0.279-0.016,0.354
	c0,0.283,0.042,0.524,0.126,0.725c0,0.147,0.063,0.279,0.189,0.393v0.583c0.053,0.105,0.12,0.294,0.205,0.568
	c0.053,0.2,0.114,0.341,0.188,0.426c0.285,0.24,0.563,0.482,0.834,0.724c0.327,0.272,0.631,0.445,0.916,0.519
	c0.199,0.168,0.33,0.3,0.394,0.395c0.314,0.043,0.607,0.064,0.882,0.064c0.43,0,0.85-0.054,1.26-0.159
	c0.125-0.095,0.225-0.157,0.298-0.188c0.495-0.117,0.909-0.348,1.244-0.693h0.205c0.147-0.041,0.287-0.158,0.418-0.348
	c0.13-0.188,0.196-0.363,0.196-0.519c0-0.179-0.109-0.343-0.33-0.49h-0.189c-0.096,0.086-0.353,0.337-0.773,0.758
	c-0.293,0.283-0.552,0.483-0.772,0.599c-0.063,0-0.144-0.02-0.243-0.057c-0.1-0.035-0.177-0.054-0.229-0.054
	c-0.031,0-0.073,0.005-0.127,0.015c-0.146,0.075-0.325,0.11-0.534,0.11c-0.19,0-0.431-0.035-0.726-0.11
	c-0.125-0.032-0.304-0.109-0.535-0.235c-0.231-0.125-0.41-0.205-0.537-0.237c-0.094-0.073-0.222-0.205-0.386-0.394
	c-0.163-0.189-0.296-0.32-0.401-0.395c-0.147-0.188-0.22-0.414-0.22-0.677c0-0.348,0.141-0.641,0.425-0.881
	c0.325-0.19,0.84-0.285,1.543-0.285c0.23,0.189,0.363,0.285,0.394,0.285c0.125,0,0.344-0.032,0.653-0.096
	c0.31-0.063,0.582-0.095,0.812-0.095h0.283c0.189,0.011,0.326,0.016,0.409,0.016c0.514,0,1.097-0.136,1.748-0.408l0.096-0.19v-0.283
	c0.01-0.115,0.016-0.2,0.016-0.251c0-0.189-0.036-0.367-0.112-0.537c-0.135-0.147-0.204-0.276-0.204-0.394
	c0-0.503-0.231-0.981-0.692-1.434c-0.2-0.2-0.651-0.534-1.354-1.007c-0.095-0.032-0.224-0.08-0.387-0.143
	c-0.164-0.063-0.292-0.11-0.385-0.143c-0.169-0.03-0.348-0.046-0.537-0.046c-0.242,0-0.519,0.046-0.835,0.143
	C244.021,62.679,243.538,62.942,243.245,63.14 M231.925,64.04c0.122-0.117,0.234-0.221,0.338-0.317
	c0.767-0.281,1.302-0.424,1.608-0.424c0.073,0,0.19,0.005,0.354,0.016c0.163,0.01,0.286,0.015,0.37,0.015
	c0.064,0.064,0.163,0.095,0.3,0.095c0.22,0.126,0.384,0.226,0.488,0.299c0.158,0.159,0.251,0.285,0.284,0.38V64.4
	c-0.012,0.138-0.017,0.237-0.017,0.301c0,0.115,0.01,0.215,0.033,0.298c0.042,0.127,0.151,0.286,0.33,0.481
	c0.179,0.193,0.29,0.354,0.332,0.479c0,0.105-0.031,0.248-0.095,0.426c-0.063,0.18-0.094,0.325-0.094,0.44
	c0.125,0.263,0.189,0.458,0.189,0.583c-0.095,0.17-0.158,0.301-0.189,0.396c-0.106,0.083-0.219,0.171-0.338,0.268
	c-0.122,0.094-0.203,0.198-0.245,0.313v0.19c-0.325,0.272-0.646,0.54-0.96,0.803c-0.399,0.315-0.793,0.472-1.182,0.472
	c-0.063-0.041-0.144-0.126-0.245-0.251c-0.099-0.125-0.175-0.205-0.228-0.237c-0.42,0-0.715-0.131-0.883-0.394
	c-0.262-0.293-0.441-0.641-0.535-1.039c-0.032-0.146-0.085-0.546-0.158-1.198c0-0.263-0.063-0.456-0.189-0.581
	c0.084-0.043,0.144-0.112,0.182-0.205c0.036-0.096,0.069-0.188,0.103-0.285c0.073-0.136,0.114-0.339,0.125-0.613
	c0.01-0.315,0.037-0.534,0.08-0.653C231.724,64.271,231.806,64.153,231.925,64.04 M230.516,64.211
	c-0.063,0.127-0.098,0.348-0.103,0.663c-0.005,0.314-0.035,0.546-0.086,0.693c0,0.03-0.035,0.093-0.103,0.189
	c-0.068,0.093-0.103,0.163-0.103,0.203c0.021,0.073,0.031,0.185,0.031,0.331c0,0.095-0.01,0.233-0.031,0.418
	c-0.021,0.184-0.032,0.322-0.032,0.417c0,0.063,0.01,0.158,0.032,0.283c0.105,0.126,0.173,0.221,0.205,0.283
	c0.02,0.138,0.031,0.332,0.031,0.583v0.018c0,0.471,0.084,0.798,0.251,0.977c0.64,0.462,1.029,0.781,1.167,0.959
	c0.031,0,0.097,0.017,0.196,0.048c0.101,0.033,0.167,0.049,0.198,0.049c0.409,0.366,0.85,0.549,1.322,0.549
	c0.431,0,0.767-0.183,1.008-0.549c0.021-0.01,0.037-0.016,0.047-0.016c0.011,0,0.03,0.018,0.056,0.053
	c0.026,0.039,0.056,0.056,0.087,0.056c0.073,0.021,0.127,0.031,0.158,0.031c0.125,0,0.399-0.134,0.819-0.409
	c0.084-0.02,0.167-0.032,0.251-0.032c0.167,0,0.373,0.073,0.615,0.221c0.283,0.18,0.483,0.279,0.599,0.302
	c0.188,0.041,0.356,0.061,0.503,0.061c0.168,0,0.358-0.02,0.568-0.061c0.125-0.074,0.189-0.205,0.189-0.395
	c0-0.128-0.033-0.221-0.096-0.285c-0.262-0.083-0.522-0.166-0.779-0.251c-0.258-0.083-0.386-0.226-0.386-0.426
	c-0.043-0.493-0.064-1.097-0.064-1.812c0-0.587,0.026-1.474,0.08-2.655c0.053-1.18,0.079-2.06,0.079-2.637
	c-0.148-0.264-0.221-0.448-0.221-0.552c0-0.074,0.011-0.122,0.031-0.142c0.137-0.179,0.205-0.441,0.205-0.789
	c0-0.063-0.005-0.157-0.015-0.282v-0.283c-0.074-0.295-0.236-0.525-0.488-0.693c-0.253-0.168-0.531-0.253-0.835-0.253
	c-0.137,0-0.28,0.027-0.425,0.078c-0.116,0-0.26-0.027-0.434-0.085c-0.174-0.06-0.292-0.086-0.354-0.086
	c-0.073,0-0.137,0.02-0.189,0.063c-0.137,0.083-0.275,0.173-0.416,0.266c-0.142,0.097-0.213,0.19-0.213,0.285
	c0,0.022,0.015,0.067,0.046,0.141c0.042,0.159,0.2,0.267,0.472,0.324c0.275,0.059,0.542,0.106,0.804,0.148
	c0.316,0.117,0.474,0.343,0.474,0.679c0.094,0.546,0.141,0.876,0.141,0.991c0,0.295-0.078,0.548-0.235,0.756
	c-0.125,0-0.646-0.093-1.559-0.281c-0.264-0.054-0.521-0.081-0.773-0.081c-0.902,0-1.491,0.322-1.763,0.963
	c-0.148,0.188-0.275,0.313-0.379,0.378L230.516,64.211z M222.436,61.078c0.461,0.356,0.775,0.534,0.944,0.534
	c0.083,0,0.158-0.016,0.22-0.046c0.515-0.293,0.772-0.726,0.772-1.292c0-0.242-0.057-0.457-0.173-0.646
	c-0.21-0.285-0.493-0.426-0.85-0.426c-0.368,0-0.773,0.141-1.214,0.426c0,0.146-0.042,0.317-0.125,0.512
	c-0.086,0.195-0.127,0.334-0.127,0.417c0,0.115,0.058,0.23,0.174,0.346C222.171,61.019,222.299,61.078,222.436,61.078 M221.08,62.52
	c-0.21-0.016-0.363-0.026-0.457-0.026c-0.147,0-0.288,0.018-0.425,0.05c-0.168,0.083-0.251,0.235-0.251,0.456
	c0,0.295,0.114,0.498,0.345,0.615c0.138,0,0.295-0.021,0.474-0.064c0.177-0.043,0.299-0.063,0.361-0.063
	c0.042,0,0.091,0.01,0.143,0.032c0.263,0.074,0.521,0.147,0.773,0.22c0.293,0.105,0.456,0.258,0.487,0.456
	c0.137,0.389,0.205,0.746,0.205,1.073c0,0.251-0.037,0.477-0.109,0.677v0.976c0.031,0.022,0.054,0.077,0.069,0.167
	c0.016,0.088,0.061,0.134,0.133,0.134c-0.199,0.44-0.298,1.149-0.298,2.125c-0.23,0.263-0.363,0.396-0.394,0.396
	c-0.389-0.053-0.729-0.08-1.024-0.08c-0.535,0-1.035,0.063-1.496,0.188c-0.273,0.064-0.41,0.254-0.41,0.567
	c0,0.117,0.037,0.211,0.111,0.283c0.063,0,0.125,0.038,0.189,0.11c0.063,0,0.157,0.007,0.283,0.018
	c0.127,0.01,0.221,0.015,0.283,0.015c0.242,0,0.446-0.047,0.615-0.143c0.641,0.158,1.597,0.237,2.867,0.237
	c0.693,0,1.198,0.022,1.512,0.063c0.452,0.063,0.73,0.093,0.834,0.093c0.379,0,0.714-0.093,1.009-0.283
	c0.159-0.168,0.236-0.346,0.236-0.535c0-0.136-0.047-0.256-0.142-0.361c-0.094-0.105-0.21-0.158-0.346-0.158l-0.52,0.19
	c-0.115,0-0.278-0.036-0.488-0.104c-0.209-0.067-0.373-0.102-0.487-0.102c-0.137,0.072-0.368,0.108-0.694,0.108
	c-0.157-0.053-0.304-0.161-0.441-0.329c-0.031-0.042-0.137-0.194-0.314-0.457c0-0.053-0.024-0.133-0.071-0.237
	c-0.047-0.104-0.071-0.182-0.071-0.236c0-0.01,0.01-0.047,0.031-0.11c0.062-0.199,0.095-0.408,0.095-0.629
	c0-0.086-0.005-0.203-0.015-0.354c-0.012-0.153-0.018-0.271-0.018-0.356c0-0.136,0.018-0.272,0.049-0.41
	c0.125-0.166,0.221-0.298,0.283-0.392c0.01-0.074,0.015-0.127,0.015-0.159c0-0.073-0.019-0.209-0.055-0.408
	c-0.038-0.2-0.054-0.368-0.054-0.504c0.094-0.127,0.141-0.279,0.141-0.459c0-0.209-0.078-0.477-0.237-0.802
	c-0.02-0.096-0.03-0.163-0.03-0.204c0-0.044,0.005-0.111,0.015-0.205c0.01-0.097,0.015-0.164,0.015-0.205
	c0-0.147-0.03-0.274-0.093-0.378c-0.21-0.337-0.635-0.505-1.275-0.505c-0.096,0-0.243,0.007-0.441,0.015
	c-0.199,0.013-0.342,0.018-0.426,0.018C221.453,62.543,221.29,62.534,221.08,62.52 M207.053,62.306
	c-0.184,0.178-0.275,0.398-0.275,0.663c0,0.155,0.03,0.303,0.095,0.44c0.053,0.168,0.188,0.281,0.41,0.339
	c0.221,0.058,0.446,0.106,0.677,0.149c0.125,0.104,0.22,0.173,0.283,0.205c0.096,0,0.205-0.022,0.332-0.063
	c0.125-0.043,0.21-0.064,0.252-0.064c0.031,0,0.063,0.01,0.094,0.032l0.285,0.282c0.199,1.619,0.33,2.814,0.395,3.593
	c0,0.072,0.017,0.173,0.053,0.298c0.037,0.127,0.056,0.221,0.056,0.285c0,0.744-0.263,1.208-0.788,1.385
	c-0.21,0-0.477-0.032-0.802-0.102c-0.326-0.068-0.558-0.104-0.695-0.104c-0.241,0-0.456,0.069-0.645,0.205
	c-0.104,0.106-0.159,0.249-0.159,0.426c0,0.367,0.153,0.608,0.458,0.726c0.093,0.042,0.221,0.063,0.376,0.063
	c0.116,0,0.287-0.018,0.512-0.056c0.227-0.036,0.393-0.055,0.497-0.055c0.137,0,0.257,0.017,0.363,0.048h0.882
	c0.199-0.031,0.425-0.048,0.677-0.048c0.2,0,0.505,0.019,0.915,0.055c0.41,0.038,0.713,0.056,0.913,0.056
	c0.262,0,0.498-0.021,0.708-0.063l0.333-0.063c0.147-0.032,0.262-0.106,0.347-0.229c0.083-0.122,0.125-0.267,0.125-0.434
	c0-0.211-0.073-0.387-0.221-0.534c-0.158,0.03-0.337,0.046-0.535,0.046c-0.265,0-0.615-0.046-1.055-0.143
	c-0.537-0.104-0.884-0.166-1.04-0.188c-0.22-0.22-0.332-0.53-0.332-0.929c0-0.42,0.111-0.793,0.332-1.119
	c-0.137-0.261-0.205-0.53-0.205-0.803c0-0.379,0.13-0.697,0.394-0.962v-0.189c0.063-0.094,0.182-0.187,0.361-0.281
	c0.179-0.095,0.285-0.19,0.316-0.283c0-0.274,0.031-0.475,0.093-0.601c0.168-0.157,0.301-0.25,0.394-0.282
	c0.042,0,0.108,0.005,0.198,0.017c0.088,0.01,0.154,0.016,0.196,0.016c0.053,0,0.115-0.011,0.189-0.032
	c0.252-0.209,0.515-0.315,0.789-0.315c0.324,0,0.514,0.168,0.566,0.503c0.021,0.295,0.042,0.583,0.064,0.868
	c0.021,0.313,0.13,0.509,0.33,0.581c0.095,0.045,0.194,0.064,0.3,0.064c0.177,0,0.392-0.059,0.646-0.173
	c0.21-0.097,0.414-0.185,0.614-0.268c0.156-0.337,0.236-0.7,0.236-1.088c0-0.797-0.337-1.282-1.009-1.45
	c-0.336-0.45-0.813-0.678-1.433-0.678c-0.724,0-1.349,0.26-1.875,0.773c-0.325,0.22-0.588,0.33-0.788,0.33
	c-0.032,0-0.093-0.008-0.188-0.032c-0.096-0.063-0.208-0.189-0.34-0.385c-0.13-0.194-0.243-0.323-0.339-0.385
	c-0.146-0.064-0.293-0.127-0.441-0.189c-0.199-0.075-0.378-0.112-0.535-0.112h-0.521h-0.535H208.1h-0.252
	C207.503,62.043,207.237,62.128,207.053,62.306 M190.624,69.167c0.057,0.161,0.086,0.297,0.086,0.4c0,0.127-0.059,0.343-0.174,0.646
	c-0.031,0.158,0,0.348,0.098,0.568c0.192,0.4,0.336,0.576,0.432,0.534c0.043-0.166,0.054-0.294,0.033-0.377
	c0.17-0.452,0.247-0.788,0.225-1.008c-0.114-0.231-0.179-0.414-0.189-0.552c0.09-0.272,0.169-0.468,0.236-0.583l-0.096-0.175
	c0.05-0.135,0.083-0.24,0.096-0.313c-0.09-0.272-0.168-0.473-0.236-0.598c-0.01-0.18,0.042-0.4,0.158-0.663
	c0.125-0.304,0.198-0.519,0.22-0.645c0.021-0.116-0.035-0.288-0.164-0.521c-0.132-0.23-0.204-0.397-0.214-0.504
	c0.012-0.083,0.061-0.229,0.151-0.434c0.089-0.202,0.122-0.354,0.101-0.448c-0.01-0.461,0.026-0.94,0.109-1.434
	c-0.007-0.419-0.05-1.029-0.125-1.827c0.115-0.263,0.173-0.544,0.173-0.852c0-0.378-0.103-0.706-0.304-0.989
	c-0.267-0.012-0.528,0.083-0.783,0.283c-0.033,0.051-0.028,0.123,0.016,0.22c0.042,0.136,0.062,0.221,0.062,0.251
	c-0.019,0.074-0.073,0.214-0.163,0.419c-0.091,0.205-0.138,0.369-0.138,0.495c0.091,0.212,0.181,0.415,0.271,0.613
	c0.102,0.254,0.113,0.47,0.029,0.646c-0.179,0.265-0.257,0.463-0.236,0.599c0.063,0.274,0.115,0.479,0.158,0.615
	c0.031,0.127,0.009,0.301-0.064,0.521c-0.083,0.283-0.129,0.468-0.14,0.551c0.01,0.064,0.052,0.161,0.125,0.292
	c0.073,0.132,0.101,0.239,0.08,0.322v0.205v0.22c0.146,0.306,0.205,0.49,0.172,0.553c-0.073,0.158-0.12,0.336-0.141,0.534
	c-0.01,0.055-0.022,0.247-0.031,0.583c0.021,0.064,0.063,0.185,0.125,0.363c0.052,0.127,0.073,0.235,0.062,0.332
	c-0.073,0.586-0.109,0.829-0.109,0.724C190.536,68.858,190.564,69.003,190.624,69.167 M166.191,64.433
	c0.078,0.095,0.134,0.141,0.165,0.141c0.934,0,1.623,0.646,2.064,1.938c0.125,0.168,0.22,0.301,0.283,0.394
	c0.021,0.087,0.042,0.29,0.063,0.615c0.021,0.251,0.063,0.436,0.125,0.553c0.293,0.461,0.588,0.981,0.881,1.558
	c0.021,0.085,0.031,0.143,0.031,0.175c0,0.041-0.005,0.097-0.015,0.164c-0.011,0.07-0.016,0.117-0.016,0.151
	c0,0.093,0.026,0.178,0.081,0.251c0.23,0.44,0.399,0.778,0.503,1.009c0,0.146-0.042,0.305-0.126,0.473
	c-0.094,0.23-0.146,0.368-0.156,0.41c-0.295,1.197-0.809,1.794-1.545,1.794c-0.104,0-0.21-0.016-0.314-0.046
	c-0.316-0.083-0.472-0.283-0.472-0.601c0-0.168,0.063-0.323,0.189-0.471c-0.063,0-0.095-0.063-0.095-0.19
	c-0.431-0.22-0.798-0.329-1.103-0.329c-0.327,0-0.547,0.142-0.661,0.426c-0.032,0.062-0.048,0.141-0.048,0.235
	c0,0.179,0.147,0.55,0.442,1.117v0.299c0.125,0.2,0.295,0.322,0.51,0.362c0.215,0.043,0.434,0.087,0.654,0.127h1.56
	c0.755-0.263,1.176-0.688,1.261-1.276c0-0.147,0.083-0.327,0.251-0.537c0.189-0.252,0.298-0.427,0.33-0.521
	c0.221-0.643,0.384-1.067,0.49-1.278c0.02-0.084,0.031-0.152,0.031-0.205c0-0.052-0.006-0.13-0.016-0.237
	c-0.01-0.103-0.015-0.188-0.015-0.251c0-0.159,0.027-0.281,0.086-0.369c0.058-0.092,0.17-0.203,0.338-0.341
	c0.136-0.125,0.217-0.239,0.244-0.339c0.026-0.1,0.051-0.346,0.071-0.734c0.021-0.303,0.068-0.552,0.143-0.74l0.314-0.378
	c0.116-0.149,0.174-0.28,0.174-0.396c0.095-0.768,0.383-1.451,0.866-2.049v-0.191c0.126-0.221,0.31-0.384,0.552-0.488
	c0.147-0.064,0.383-0.126,0.708-0.188c0.096-0.454,0.143-0.726,0.143-0.822c0-0.24-0.078-0.424-0.236-0.551
	c-0.42,0-0.957,0.035-1.608,0.11c-1.05,0.117-1.585,0.175-1.605,0.175c0,0.095-0.014,0.22-0.04,0.378
	c-0.026,0.157-0.04,0.274-0.04,0.349c0,0.136,0.025,0.256,0.08,0.363c0.031,0.04,0.141,0.168,0.33,0.378
	c0.127,0.147,0.21,0.279,0.252,0.395c0.137,0.358,0.236,0.617,0.3,0.775v0.298c-0.777,0.664-1.166,1.412-1.166,2.243
	c0,0.307-0.163,0.459-0.488,0.459c-0.117,0-0.21-0.027-0.285-0.078c-0.325-0.242-0.566-0.61-0.724-1.104
	c-0.127-0.44-0.247-0.882-0.363-1.324c-0.031-0.03-0.079-0.095-0.141-0.196c-0.064-0.099-0.111-0.164-0.143-0.195
	c-0.063-0.199-0.094-0.39-0.094-0.567c0-0.578,0.226-0.973,0.677-1.184c0.063-0.061,0.094-0.122,0.094-0.18s0.005-0.137,0.015-0.235
	c0.01-0.102,0.016-0.173,0.016-0.214c0-0.146-0.042-0.263-0.125-0.346c-0.157-0.106-0.389-0.173-0.694-0.205
	c-0.252-0.021-0.503-0.049-0.755-0.079c-0.096-0.011-0.251-0.016-0.472-0.016c-0.432,0-1.024,0.1-1.781,0.3
	c-0.2,0.104-0.299,0.273-0.299,0.504v0.157c0,0,0.033,0.039,0.103,0.119C166.039,64.252,166.112,64.338,166.191,64.433
	 M156.023,67.489c0.472-0.085,0.762-0.143,0.866-0.175c0.083,0,0.184-0.035,0.298-0.108c0.189-0.117,0.29-0.175,0.301-0.175
	c0.073-0.021,0.304-0.078,0.693-0.173c0.305-0.063,0.546-0.093,0.726-0.093c0.146,0,0.288,0.021,0.425,0.061
	c0.303,0.095,0.456,0.311,0.456,0.646c0,0.252-0.09,0.488-0.267,0.708c0,0.075-0.016,0.175-0.049,0.3
	c-0.03,0.126-0.046,0.226-0.046,0.299c-0.23,0.189-0.426,0.322-0.583,0.395c-0.683,0.578-1.365,0.866-2.047,0.866
	c-0.284,0-0.804-0.125-1.561-0.378c-0.389-0.232-0.583-0.561-0.583-0.991c0-0.357,0.164-0.646,0.49-0.866
	C155.372,67.657,155.666,67.55,156.023,67.489 M156.371,62.273c-0.085,0-0.204-0.007-0.356-0.022
	c-0.151-0.015-0.259-0.023-0.323-0.023c-0.189,0-0.341,0.041-0.457,0.127c-0.272,0.293-0.545,0.582-0.819,0.866
	c-0.314,0.356-0.493,0.717-0.535,1.087c0,0.021-0.021,0.071-0.064,0.149c-0.042,0.079-0.063,0.148-0.063,0.213
	c0,0.179,0.143,0.329,0.426,0.456c0.242,0.094,0.467,0.143,0.677,0.143c0.409,0,0.699-0.127,0.866-0.378
	c0.043-0.189,0.091-0.38,0.151-0.568c0.057-0.189,0.17-0.325,0.338-0.41c0.325-0.22,0.594-0.33,0.804-0.33
	c0.042,0,0.099,0.012,0.172,0.032c0.086,0,0.222-0.005,0.41-0.016c0.189-0.01,0.337-0.017,0.443-0.017
	c0.135,0,0.272,0.012,0.407,0.032c0.537,0.221,0.895,0.514,1.073,0.881c0.031,0.094,0.046,0.2,0.046,0.314
	c0,0.254-0.08,0.489-0.235,0.71c-0.159,0.221-0.353,0.361-0.584,0.426c-0.399,0.104-0.982,0.189-1.748,0.252
	c-0.798,0.073-1.387,0.158-1.766,0.251c-0.031,0.032-0.078,0.063-0.141,0.095c-0.063,0.032-0.111,0.063-0.143,0.096
	c-0.106,0-0.332,0.1-0.676,0.298c-0.537,0.453-0.804,1.014-0.804,1.685c0,0.4,0.104,0.744,0.314,1.033
	c0.21,0.288,0.51,0.533,0.899,0.733c0.346,0.138,0.693,0.276,1.039,0.424c0.273,0.159,0.598,0.237,0.977,0.237
	c0.147,0,0.537-0.047,1.167-0.143c0.503-0.576,1.091-0.866,1.764-0.866c0.283,0,0.537,0.064,0.757,0.188
	c0.093,0.063,0.206,0.185,0.338,0.362c0.13,0.18,0.248,0.283,0.354,0.315c0.262,0,0.519-0.063,0.772-0.189
	c0.556-0.451,0.913-0.902,1.071-1.354c0-0.093-0.096-0.193-0.285-0.298c-0.324,0-0.682,0.13-1.071,0.393
	c-0.399,0-0.598-0.161-0.598-0.488c0-0.263-0.005-0.661-0.016-1.198v-1.195c0-0.998,0.042-1.854,0.127-2.567
	c-0.314-0.619-0.736-1.077-1.26-1.372c-0.326-0.168-0.736-0.288-1.229-0.362c-0.441-0.041-0.876-0.078-1.307-0.108
	c-0.031-0.021-0.078-0.032-0.142-0.032c0.106,0-0.073,0.042-0.535,0.125C156.5,62.269,156.422,62.273,156.371,62.273
	 M146.903,62.423c-0.137-0.046-0.233-0.133-0.285-0.258v-0.301c0-0.146,0.015-0.369,0.046-0.667
	c0.033-0.302,0.049-0.524,0.049-0.672c0-0.348-0.064-0.608-0.19-0.788c-0.075-0.136-0.158-0.268-0.252-0.4
	c-0.095-0.132-0.232-0.198-0.409-0.198c-0.096,0.044-0.192,0.082-0.292,0.119c-0.101,0.037-0.167,0.097-0.198,0.182
	c-0.104,0.22-0.157,0.535-0.157,0.943c0,0.138,0.007,0.35,0.023,0.64c0.015,0.288,0.024,0.507,0.024,0.652
	c0,0.055,0.032,0.127,0.102,0.221c0.068,0.097,0.103,0.185,0.103,0.27c-0.274,0.398-0.699,0.598-1.276,0.598
	c-0.096,0-0.227-0.01-0.394-0.032c-0.042-0.01-0.163-0.067-0.363-0.173c-0.147-0.084-0.273-0.125-0.378-0.125
	c-0.031,0-0.073,0.005-0.125,0.016c-0.243,0.084-0.436,0.342-0.583,0.772c0,0.378,0.163,0.672,0.487,0.882
	c0.285,0,0.604-0.133,0.962-0.396c0.146-0.072,0.298-0.108,0.457-0.108c0.419,0,0.855,0.329,1.307,0.99
	c-0.063,0.778-0.094,1.361-0.094,1.751c-0.021,0.021-0.043,0.076-0.064,0.164c-0.021,0.089-0.067,0.135-0.14,0.135
	c0.115,0.261,0.173,0.65,0.173,1.166v0.471c0,0.263,0.011,0.463,0.031,0.601c0.031,0.03,0.063,0.078,0.094,0.141
	c0.031,0.064,0.063,0.11,0.095,0.143c0.157,0.701,0.319,1.156,0.488,1.353c0.251,0.317,0.604,0.522,1.055,0.615
	c0.262,0.055,0.692,0.08,1.292,0.08c0.137-0.031,0.277-0.068,0.426-0.112c0.147-0.041,0.257-0.104,0.331-0.188
	c0.21-0.178,0.415-0.355,0.615-0.535c0.23-0.221,0.386-0.424,0.472-0.614c0.01-0.072,0.015-0.142,0.015-0.205
	c0-0.072-0.008-0.187-0.024-0.339c-0.016-0.152-0.023-0.259-0.023-0.322c0-0.106,0.01-0.18,0.032-0.22
	c0.135-0.263,0.204-0.421,0.204-0.475c0-0.021-0.005-0.056-0.015-0.108c0-0.243-0.194-0.499-0.583-0.773h-0.205
	c-0.241,0.327-0.498,0.685-0.772,1.071c-0.063,0.095-0.094,0.21-0.094,0.348c0,0.041,0.005,0.106,0.016,0.195
	c0.01,0.091,0.016,0.157,0.016,0.198c0,0.547-0.467,0.82-1.403,0.82c-0.272-0.097-0.529-0.322-0.771-0.678
	c0-0.105-0.069-0.306-0.205-0.599v-1.166c0.053-0.18,0.079-0.336,0.079-0.474c0-0.23-0.058-0.461-0.173-0.691
	c-0.094-0.159-0.157-0.29-0.189-0.395c-0.011-0.075-0.016-0.133-0.016-0.173c0-0.17,0.132-0.463,0.395-0.882v-0.396
	c0.106-0.188,0.236-0.32,0.394-0.393h0.205c0.158-0.127,0.288-0.221,0.393-0.283c0.169-0.043,0.32-0.064,0.457-0.064
	c0.326,0,0.588,0.085,0.788,0.253c0.136-0.085,0.394-0.143,0.772-0.173c0.325-0.031,0.562-0.138,0.709-0.315
	c0.063-0.073,0.093-0.186,0.093-0.331c0-0.305-0.13-0.521-0.395-0.646c-0.22-0.043-0.419-0.064-0.597-0.064
	c-0.285,0-0.542,0.054-0.772,0.157c-0.106,0.095-0.251,0.143-0.441,0.143c-0.126,0-0.43-0.079-0.913-0.235
	C147.175,62.511,147.039,62.472,146.903,62.423 M132.063,64.425c-0.02,0.194-0.03,0.339-0.03,0.434c0,0.115,0.01,0.221,0.03,0.315
	c0.032,0.147,0.115,0.305,0.252,0.471c0.21,0.23,0.326,0.368,0.348,0.41v0.188c0.114,0.097,0.241,0.143,0.378,0.143
	c0.104,0,0.251-0.03,0.441-0.095c0.189-0.063,0.33-0.094,0.425-0.094c0.084,0,0.158,0.016,0.221,0.046
	c0.23,0.159,0.393,0.29,0.487,0.396c0.189,0,0.348-0.032,0.472-0.096c0.147,0,0.295,0.038,0.44,0.11
	c0.2,0.105,0.316,0.163,0.348,0.173c0.588,0,1.014,0.037,1.275,0.11c0.073,0.055,0.184,0.178,0.332,0.378
	c0.115,0.168,0.227,0.265,0.33,0.285c0.327,0.093,0.589,0.288,0.789,0.581v0.205c-0.042,0.055-0.21,0.306-0.503,0.756
	c-0.179,0.283-0.368,0.488-0.567,0.615c-0.452,0.221-0.809,0.379-1.071,0.472c-0.073,0-0.197-0.032-0.37-0.102
	c-0.173-0.068-0.317-0.102-0.434-0.102c-0.031,0-0.083,0.008-0.159,0.023c-0.073,0.016-0.129,0.022-0.171,0.022
	c-0.013,0-0.248-0.073-0.71-0.221c-0.252-0.083-0.477-0.256-0.677-0.519c-0.031-0.043-0.163-0.263-0.394-0.661
	c-0.336-0.505-0.567-0.892-0.692-1.166c-0.116-0.073-0.243-0.11-0.378-0.11c-0.179,0-0.306,0.037-0.378,0.11
	c-0.073,0.147-0.109,0.305-0.109,0.471c0,0.265,0.099,0.532,0.299,0.804c0.031,0.074,0.047,0.147,0.047,0.221
	c0,0.137-0.051,0.289-0.149,0.457c-0.101,0.168-0.196,0.331-0.292,0.49c-0.052,0.124-0.078,0.256-0.078,0.394
	c0,0.22,0.057,0.41,0.173,0.565c0.177,0.105,0.356,0.158,0.535,0.158c0.096,0,0.174-0.016,0.236-0.048
	c0.336-0.137,0.793-0.205,1.372-0.205c0.158,0.022,0.477,0.085,0.959,0.19c0.389,0.083,0.71,0.125,0.962,0.125
	c0.136,0,0.241-0.005,0.313-0.016c0.431-0.104,0.757-0.3,0.978-0.581c0.031-0.022,0.063-0.034,0.096-0.034
	c0.042,0,0.129,0.022,0.258,0.064c0.132,0.043,0.24,0.063,0.323,0.063c0.075-0.072,0.231-0.205,0.474-0.395
	c0.198-0.147,0.335-0.271,0.41-0.378c0-0.01,0.057-0.156,0.171-0.44c0.074-0.179,0.111-0.324,0.111-0.441
	c0.104-0.293,0.159-0.567,0.159-0.818c0-0.41-0.147-0.688-0.441-0.836c-0.296-0.093-0.492-0.283-0.592-0.566
	c-0.099-0.284-0.328-0.482-0.686-0.598c-0.093-0.021-0.334-0.043-0.724-0.064c-0.293-0.011-0.537-0.058-0.724-0.141
	c-0.327,0-0.588,0.037-0.789,0.109c-0.209,0-0.44-0.037-0.692-0.109c-0.189-0.064-0.378-0.128-0.567-0.188
	c-0.326-0.357-0.553-0.646-0.677-0.866v-0.189c0.166-0.19,0.338-0.38,0.512-0.575c0.172-0.195,0.359-0.327,0.559-0.403
	c0.084-0.041,0.177-0.062,0.283-0.062c0.063,0,0.16,0.011,0.292,0.031c0.132,0.021,0.229,0.03,0.292,0.03
	c0.136-0.03,0.278-0.046,0.426-0.046c0.356,0,0.734,0.078,1.134,0.235c0.209,0.107,0.436,0.338,0.676,0.693
	c0.243,0.358,0.436,0.582,0.583,0.67c0.147,0.09,0.326,0.134,0.536,0.134c0.221,0,0.404-0.048,0.55-0.141
	c0.011-0.01,0.016-0.034,0.016-0.064c0-0.063-0.073-0.23-0.22-0.503c-0.021-0.148-0.032-0.258-0.032-0.333
	c0-0.113,0.01-0.293,0.032-0.533c0.02-0.241,0.033-0.421,0.033-0.536c0-0.293-0.044-0.546-0.127-0.756l-0.205-0.095h-0.978
	c-0.146,0.052-0.277,0.077-0.393,0.077c-0.167,0-0.367-0.037-0.598-0.109c-0.179-0.051-0.363-0.104-0.552-0.158
	c-0.231-0.063-0.44-0.093-0.63-0.093c-0.209,0-0.682,0.063-1.418,0.189c-0.262,0-0.519,0.062-0.771,0.188
	c-0.075,0.083-0.326,0.283-0.757,0.597c-0.293,0.22-0.493,0.449-0.599,0.68v0.188C132.095,64.092,132.084,64.229,132.063,64.425"/>
</svg>
